<?xml version="1.0" standalone="no"?>
<!DOCTYPE svg PUBLIC "-//W3C//DTD SVG 20010904//EN"
 "http://www.w3.org/TR/2001/REC-SVG-20010904/DTD/svg10.dtd">
<svg version="1.0" xmlns="http://www.w3.org/2000/svg"
 width="312.000000pt" height="312.000000pt" viewBox="0 0 312.000000 312.000000"
 preserveAspectRatio="xMidYMid meet">
<metadata>
Created by potrace 1.14, written by Peter Selinger 2001-2017
</metadata>
<g transform="translate(0.000000,312.000000) scale(0.100000,-0.100000)"
fill="#000000" stroke="none">
<path d="M0 2896 c0 -244 -2 -235 58 -237 15 0 21 -3 14 -6 -10 -4 -10 -8 -1
-19 6 -8 17 -14 23 -14 6 0 4 5 -4 10 -13 8 -13 10 2 10 9 0 20 -5 23 -10 4
-6 16 -8 26 -5 11 4 41 7 67 7 33 0 53 6 73 23 18 14 48 25 83 29 30 4 60 14
67 22 20 24 93 53 141 57 23 1 49 6 56 10 7 5 12 3 12 -3 0 -6 5 -8 11 -5 6 4
8 13 5 20 -3 10 2 12 20 9 14 -3 23 -1 20 4 -3 5 3 17 14 27 19 17 19 20 4 42
-11 18 -12 24 -2 22 7 0 23 2 36 6 19 6 20 9 8 19 -27 20 -19 126 10 126 7 0
19 6 26 13 12 12 53 28 83 32 17 3 65 24 65 29 0 3 -211 6 -470 6 l-470 0 0
-224z m720 69 c0 -8 -4 -15 -10 -15 -5 0 -7 7 -4 15 4 8 8 15 10 15 2 0 4 -7
4 -15z"/>
<path d="M978 3113 c12 -2 32 -2 45 0 12 2 2 4 -23 4 -25 0 -35 -2 -22 -4z"/>
<path d="M1134 3109 c12 -8 25 -8 40 -1 18 9 16 11 -19 11 -33 0 -37 -1 -21
-10z"/>
<path d="M1280 3110 c0 -7 14 -8 38 -4 51 9 53 14 4 14 -23 0 -42 -5 -42 -10z"/>
<path d="M1653 3099 c-48 -30 -42 -44 19 -47 29 -1 55 -6 58 -12 3 -6 17 -3
34 5 33 17 36 18 36 6 0 -5 -10 -11 -22 -14 -12 -4 -19 -9 -15 -13 4 -4 -6
-13 -23 -20 -16 -7 -30 -19 -30 -27 0 -15 -66 -77 -82 -77 -5 0 -6 -4 -3 -10
11 -18 33 -11 84 30 38 30 59 40 87 40 33 0 36 -2 30 -22 -4 -13 -13 -63 -21
-113 -8 -49 -18 -101 -21 -114 -13 -46 20 -17 37 32 8 26 19 50 22 54 4 3 7
21 7 40 0 25 10 44 40 77 22 23 38 45 36 47 -2 2 14 4 36 5 28 0 35 -2 24 -8
-9 -5 -21 -6 -26 -3 -6 3 -10 2 -10 -3 0 -5 -9 -12 -19 -15 -13 -3 -19 -13
-18 -30 1 -15 7 -23 15 -20 6 3 12 9 12 14 0 5 5 9 10 9 6 0 10 -15 10 -32 0
-18 5 -40 10 -48 8 -11 9 -9 5 11 -4 17 -1 30 9 38 9 8 16 10 16 5 0 -5 4 -3
9 5 14 22 145 17 169 -6 26 -26 56 -94 54 -123 -1 -19 0 -21 8 -10 7 12 10 11
16 -5 5 -11 14 -26 21 -33 7 -8 11 -18 8 -23 -4 -5 7 -9 24 -9 16 0 33 -5 36
-11 10 -16 -3 -23 -18 -11 -14 12 -57 5 -57 -9 0 -5 10 -9 23 -9 24 0 54 -16
46 -24 -2 -3 -23 1 -44 9 -60 21 -109 19 -142 -8 -15 -12 -50 -33 -78 -46 -27
-13 -58 -33 -67 -45 -14 -18 -19 -19 -30 -7 -11 12 -10 13 5 8 11 -4 16 -3 12
4 -4 6 -13 8 -20 6 -15 -7 -68 27 -58 37 4 4 -1 4 -11 0 -14 -5 -17 -4 -12 4
4 7 1 13 -6 13 -29 3 -34 5 -59 22 -15 10 -49 20 -75 24 -27 3 -55 10 -62 16
-7 6 -66 10 -135 11 -106 0 -133 -3 -205 -27 -229 -74 -382 -203 -484 -407
-16 -30 -31 -69 -34 -87 -5 -25 -11 -33 -28 -33 -12 0 -27 5 -33 11 -5 5 -45
11 -87 11 -43 1 -79 6 -82 10 -3 4 -12 1 -21 -8 -15 -14 -17 -14 -26 2 -10 17
-11 17 -16 1 -6 -16 -8 -16 -27 2 -21 19 -21 19 -39 -17 -10 -21 -17 -43 -16
-51 1 -8 -12 -2 -32 13 -19 14 -40 26 -48 26 -8 0 -15 9 -16 21 -1 14 3 19 15
17 26 -5 38 12 34 46 -3 25 -2 29 8 19 7 -7 25 -10 39 -7 19 4 32 -1 45 -15
11 -12 28 -21 40 -21 16 0 11 9 -29 45 -47 42 -53 44 -95 39 l-45 -6 -136 134
c-75 73 -159 148 -188 165 l-51 32 0 -1289 0 -1290 1560 0 1560 0 0 1075 0
1076 -37 -6 c-41 -7 -152 -43 -168 -55 -5 -4 -44 -17 -85 -30 -41 -12 -79 -26
-85 -30 -5 -5 -41 -21 -80 -36 -38 -15 -79 -33 -90 -40 -11 -6 -38 -17 -60
-24 -22 -7 -46 -17 -53 -23 -7 -5 -30 -10 -52 -10 -22 0 -40 -3 -40 -7 0 -4
-11 -7 -25 -6 -19 1 -25 7 -26 26 -1 14 0 30 1 35 6 23 0 49 -17 68 -17 19
-17 20 0 14 23 -9 21 3 -7 42 -21 28 -25 30 -29 14 -3 -12 -5 -9 -6 9 -1 20 3
26 14 22 8 -4 15 -13 15 -22 0 -8 3 -13 6 -9 4 3 3 18 0 33 -4 14 -10 23 -13
20 -4 -4 -13 4 -20 16 -13 23 -13 22 -7 -4 4 -17 2 -28 -4 -28 -15 0 -19 -29
-11 -67 4 -19 3 -30 -2 -27 -5 3 -9 11 -9 17 0 7 -9 18 -20 25 -23 14 -26 29
-5 29 8 0 11 -5 8 -11 -3 -6 0 -6 7 1 10 9 10 21 1 57 -6 25 -11 49 -11 54 0
10 30 12 45 3 6 -3 3 2 -7 11 -18 16 -17 19 29 80 57 75 72 89 95 84 9 -2 33
5 53 15 19 10 35 15 35 9 0 -15 30 -12 31 3 1 6 0 20 -1 31 -1 11 3 16 10 11
7 -4 18 2 27 14 10 15 21 20 34 16 13 -4 19 -2 19 9 0 10 6 13 15 10 11 -4 15
0 15 16 0 15 -5 20 -14 17 -8 -3 -17 2 -21 11 -3 9 -3 14 0 10 4 -3 15 1 26
10 18 16 18 18 2 29 -9 7 -18 21 -19 31 -3 16 -2 16 10 -1 12 -16 14 -16 20
-2 3 9 10 14 15 11 5 -4 4 7 -2 24 -6 16 -18 32 -26 35 -10 4 -11 2 -4 -7 5
-7 13 -21 16 -30 8 -21 -15 -24 -35 -5 -24 22 -59 38 -68 32 -6 -4 -10 0 -10
7 0 10 -2 10 -9 -1 -5 -8 -16 -11 -30 -6 -17 5 -21 2 -21 -14 0 -12 -4 -21
-10 -21 -5 0 -9 11 -8 24 1 14 5 23 9 20 4 -2 9 2 12 10 7 18 106 30 138 17
13 -5 37 -21 53 -34 25 -20 30 -31 30 -74 1 -34 -4 -55 -16 -67 -24 -24 -22
-28 7 -14 14 6 25 17 25 25 0 10 27 13 125 13 155 0 167 -17 25 -36 -34 -4
-34 -4 -10 8 23 12 21 13 -29 16 -63 4 -101 -4 -101 -19 0 -7 10 -9 24 -5 14
3 27 2 31 -3 3 -6 -11 -13 -32 -16 -21 -4 -47 -9 -58 -12 l-20 -6 20 -8 c16
-6 17 -8 3 -8 -9 -1 -20 -6 -23 -11 -8 -12 70 -3 98 12 11 6 30 5 50 -1 18 -5
101 -13 185 -17 l152 -7 0 337 0 336 -717 0 c-710 0 -718 -1 -750 -21z m412
-19 c-3 -5 -16 -10 -28 -9 -21 0 -21 1 -2 9 28 12 37 12 30 0z m275 -380 c12
-8 9 -10 -12 -10 -16 0 -28 5 -28 10 0 13 20 13 40 0z m224 -61 c5 -4 -4 -7
-19 -6 -16 1 -30 8 -33 16 -3 10 2 11 19 6 13 -4 28 -11 33 -16z m-1008 -12
c4 -4 -3 -7 -15 -7 -14 0 -25 -9 -31 -25 -9 -24 -40 -35 -40 -14 0 5 5 7 10 4
6 -3 10 -1 10 4 0 6 -15 11 -34 11 -27 0 -36 -5 -42 -22 -6 -20 -8 -20 -19 -5
-14 19 -50 23 -61 6 -3 -6 0 -16 7 -21 11 -8 10 -9 -3 -4 -12 3 -18 0 -18 -9
0 -16 -1 -16 -36 -20 -12 -1 -27 -5 -33 -9 -6 -4 -10 -2 -9 4 5 20 -26 18 -46
-3 -19 -20 -19 -20 8 -13 17 4 26 2 26 -5 0 -7 -3 -9 -7 -6 -7 8 -32 -23 -33
-40 0 -7 9 -13 19 -13 11 0 23 -4 26 -10 3 -5 2 -10 -2 -10 -11 0 -119 -103
-156 -149 -15 -18 -30 -32 -32 -29 -6 5 44 77 73 104 12 12 22 26 22 33 0 6
10 10 23 8 16 -1 22 3 21 15 -1 10 3 15 10 12 6 -3 2 2 -8 10 -11 9 -16 16
-12 16 4 0 4 5 1 10 -5 8 -12 7 -23 -2 -12 -10 -14 -10 -8 0 5 8 0 12 -14 12
-13 0 -19 4 -14 12 4 6 3 8 -4 5 -5 -4 -9 -19 -7 -35 3 -27 -10 -52 -26 -52
-5 0 -4 12 1 26 7 16 7 23 0 19 -6 -3 -10 -13 -10 -21 0 -8 -7 -14 -16 -14
-14 0 -14 3 -4 15 7 9 11 18 8 21 -3 2 -13 -7 -23 -22 -9 -15 -13 -24 -8 -21
12 7 25 -3 40 -30 11 -19 10 -21 -8 -18 -13 3 -23 -3 -29 -18 -5 -12 -9 -17
-9 -10 -1 6 -9 10 -18 9 -23 -4 -84 -111 -71 -124 6 -6 5 -12 -3 -17 -8 -5
-10 -4 -5 4 4 6 0 14 -9 17 -9 4 -14 12 -11 20 3 7 1 14 -5 16 -11 4 55 106
103 160 38 43 168 148 183 148 6 0 33 12 60 27 37 20 64 27 105 26 36 0 47 2
30 6 -23 7 -21 8 15 14 22 4 49 6 60 6 17 -1 16 -2 -5 -9 l-25 -8 26 -1 c15
-1 29 5 32 13 6 14 60 16 73 3z m79 2 c11 0 14 -3 7 -6 -6 -2 -10 -9 -6 -14 3
-5 -2 -9 -12 -9 -9 0 -23 -8 -30 -17 -13 -17 -13 -17 -14 2 -1 11 -3 28 -5 38
-3 15 1 18 18 13 12 -3 31 -6 42 -7z m94 -15 c2 -2 -7 -12 -20 -23 -24 -19
-24 -19 -28 2 -1 12 -8 25 -15 29 -6 5 5 5 24 2 19 -4 37 -8 39 -10z m746 -4
c3 -6 -1 -7 -9 -4 -18 7 -21 14 -7 14 6 0 13 -4 16 -10z m-710 -10 c3 -6 -1
-7 -9 -4 -18 7 -21 14 -7 14 6 0 13 -4 16 -10z m-118 -25 c0 -8 -4 -12 -9 -9
-4 3 -8 9 -8 15 0 5 4 9 8 9 5 0 9 -7 9 -15z m103 11 c0 -3 -4 -8 -10 -11 -5
-3 -10 -1 -10 4 0 6 5 11 10 11 6 0 10 -2 10 -4z m133 -37 c19 -11 24 -18 15
-21 -18 -7 -38 2 -38 16 0 7 -7 13 -15 13 -8 0 -15 -5 -15 -11 0 -6 -4 -5 -9
3 -11 16 -34 5 -24 -12 4 -7 0 -6 -10 2 -20 16 -22 38 -4 44 15 5 62 -11 100
-34z m-426 25 c-3 -3 -12 -4 -19 -1 -8 3 -5 6 6 6 11 1 17 -2 13 -5z m96 -1
c-7 -2 -19 -2 -25 0 -7 3 -2 5 12 5 14 0 19 -2 13 -5z m162 -13 c3 -5 -1 -10
-10 -10 -9 0 -13 5 -10 10 3 6 8 10 10 10 2 0 7 -4 10 -10z m263 -72 c20 -20
13 -34 -18 -36 -34 -3 -35 0 -18 28 15 23 20 24 36 8z m-458 -33 c-106 -23
-202 -78 -274 -156 -56 -61 -136 -189 -136 -218 0 -22 18 -10 30 20 21 49 140
165 194 189 57 24 57 24 50 5 -4 -8 -10 -13 -14 -10 -5 3 -12 0 -15 -6 -4 -6
-27 -19 -52 -30 -42 -18 -83 -57 -110 -103 -15 -25 -16 -39 -4 -31 5 3 13 0
17 -6 4 -8 3 -9 -4 -5 -7 4 -12 1 -12 -6 0 -9 -3 -9 -10 2 -8 13 -11 13 -27
-2 -16 -17 -16 -18 7 -18 38 0 18 -9 -46 -21 -32 -6 -73 -19 -90 -30 -34 -21
-64 -25 -64 -9 0 6 7 10 15 10 9 0 18 8 21 18 29 85 111 228 153 266 11 10 19
22 16 26 -2 4 1 7 8 7 7 0 39 17 72 38 86 56 169 82 262 83 l78 1 -65 -14z
m713 -39 c7 -17 -37 -109 -61 -128 -11 -9 -9 -1 7 25 16 26 22 48 19 72 -4 31
2 42 23 44 4 1 9 -5 12 -13z m-1063 -2 c0 -8 -19 -13 -24 -6 -3 5 1 9 9 9 8 0
15 -2 15 -3z m430 -94 l25 -8 -27 -1 c-14 -1 -28 -6 -30 -12 -2 -7 -13 -7 -33
2 -17 6 -46 15 -65 19 -28 6 -21 8 35 8 39 0 81 -4 95 -8z m-581 -19 c9 -6 10
-10 2 -16 -15 -8 -41 1 -41 15 0 12 20 13 39 1z m-37 -38 c-6 -2 -9 -10 -6
-15 4 -7 2 -8 -4 -4 -18 11 -14 26 6 25 10 0 12 -3 4 -6z m31 -28 c-21 -16
-28 -12 -20 9 4 9 13 13 22 10 14 -6 13 -8 -2 -19z m400 0 c-3 -9 -8 -14 -10
-11 -3 3 -2 9 2 15 9 16 15 13 8 -4z m-509 -71 c5 -23 4 -32 -6 -31 -39 1 -48
-4 -48 -29 0 -14 -4 -23 -9 -19 -10 6 -3 35 25 104 19 47 23 44 38 -25z m1038
37 c36 -23 49 -39 57 -68 11 -39 14 -101 4 -73 -3 8 -37 46 -74 84 -49 49 -65
72 -57 78 19 11 20 11 70 -21z m-970 -27 c-9 -16 -10 -14 -9 8 1 15 6 23 11
18 4 -4 4 -16 -2 -26z m1095 4 c-3 -8 -6 -5 -6 6 -1 11 2 17 5 13 3 -3 4 -12
1 -19z m143 -31 c0 -5 -4 -5 -10 -2 -5 3 -10 2 -10 -4 0 -5 8 -15 18 -20 9 -6
12 -11 5 -11 -6 0 -19 10 -27 22 -12 16 -13 25 -4 35 9 11 13 12 19 1 5 -7 9
-17 9 -21z m-926 -8 c-4 -6 -11 -6 -20 2 -21 17 -17 31 6 19 11 -6 18 -15 14
-21z m-404 -29 c0 -5 -4 -10 -10 -10 -5 0 -10 5 -10 10 0 6 5 10 10 10 6 0 10
-4 10 -10z m-530 -10 c0 -6 11 -8 25 -4 21 5 24 3 18 -12 -4 -12 -3 -15 5 -10
7 4 12 2 12 -4 0 -6 7 -18 15 -26 21 -22 19 -50 -4 -50 -11 0 -18 3 -15 7 6
10 -17 59 -28 59 -5 0 -6 5 -3 10 3 6 1 10 -5 10 -8 0 -9 -11 -5 -32 l6 -33
-20 35 c-22 39 -26 60 -11 60 6 0 10 -5 10 -10z m597 -12 c-3 -8 -6 -5 -6 6
-1 11 2 17 5 13 3 -3 4 -12 1 -19z m-12 -25 c6 3 12 -1 12 -9 0 -16 -22 -25
-41 -18 -9 3 -12 12 -9 21 4 11 2 14 -5 9 -8 -5 -10 -2 -6 8 5 14 8 14 21 0 9
-8 21 -13 28 -11z m1332 -25 c-3 -8 -6 -5 -6 6 -1 11 2 17 5 13 3 -3 4 -12 1
-19z m-610 -25 c20 -27 27 -82 13 -108 -16 -29 -59 -50 -74 -35 -5 5 -17 10
-25 9 -11 0 -10 -3 4 -9 17 -7 17 -9 3 -9 -10 -1 -25 10 -34 24 l-16 24 -29
-30 c-28 -29 -37 -49 -21 -49 12 0 29 14 35 30 4 12 6 12 6 -2 1 -23 40 -58
56 -52 7 3 16 1 20 -5 3 -7 0 -8 -9 -5 -12 5 -16 -1 -16 -22 0 -16 -4 -34 -8
-40 -13 -19 -53 -36 -88 -36 -23 0 -32 -4 -27 -11 3 -7 -3 -4 -14 6 -40 35
-66 114 -61 185 4 61 7 67 43 99 21 18 59 40 84 48 57 18 141 12 158 -12z
m610 -38 c0 -8 -4 -12 -9 -9 -5 3 -6 10 -3 15 9 13 12 11 12 -6z m-1837 1 c0
-3 -4 -8 -10 -11 -5 -3 -10 -1 -10 4 0 6 5 11 10 11 6 0 10 -2 10 -4z m713
-36 c-3 -11 -10 -20 -15 -20 -5 0 -6 5 -3 10 3 6 1 10 -6 10 -8 0 -8 4 1 15
16 19 30 10 23 -15z m678 -3 c-8 -8 -11 -7 -11 4 0 9 3 19 7 23 4 4 9 2 11 -4
3 -7 -1 -17 -7 -23z m-1076 -6 c4 -20 -2 -49 -19 -92 -28 -67 -31 -84 -17 -75
17 11 19 -18 3 -45 -8 -15 -12 -34 -9 -44 6 -15 11 -14 47 6 29 16 40 29 40
46 0 13 5 23 10 23 6 0 10 -11 10 -24 0 -13 6 -39 14 -57 9 -21 12 -53 9 -89
-6 -63 7 -84 35 -57 14 15 17 15 29 -1 11 -13 16 -14 20 -4 4 10 9 9 20 -5 14
-17 14 -17 9 2 -6 19 -5 19 8 1 9 -10 20 -15 27 -10 8 4 10 3 5 -4 -4 -6 -2
-22 5 -34 12 -23 12 -23 -10 -4 -11 11 -21 14 -21 8 0 -6 9 -18 21 -26 12 -8
18 -19 14 -25 -8 -13 16 -23 58 -25 17 -1 33 -8 35 -15 3 -8 0 -11 -6 -7 -6 3
-13 -3 -17 -14 -4 -12 -11 -17 -18 -14 -7 4 -9 3 -4 -1 4 -5 16 -9 27 -10 15
-1 17 1 9 12 -7 8 -8 13 -1 13 5 0 15 -7 22 -15 7 -8 17 -12 22 -9 5 3 1 12
-9 20 -16 12 -16 13 -1 14 9 0 20 -5 23 -10 8 -13 -4 -52 -15 -45 -4 3 -10 -1
-13 -8 -3 -9 3 -13 22 -11 14 1 18 -1 9 -3 -10 -2 -18 -9 -18 -14 0 -13 31
-11 61 5 21 11 26 11 26 0 0 -8 -9 -16 -19 -20 -29 -9 -21 -24 15 -24 24 0 40
-9 64 -34 35 -38 90 -58 153 -54 22 1 43 -1 46 -5 4 -4 -31 -7 -79 -7 -47 0
-88 -4 -91 -9 -3 -5 -32 -7 -63 -4 l-58 6 25 -21 25 -20 -50 4 c-36 3 -45 2
-30 -5 11 -5 38 -11 60 -12 l40 -2 -35 -7 c-19 -4 -29 -8 -22 -9 6 0 12 -8 12
-16 0 -9 10 -15 23 -16 21 -1 21 -1 -3 -9 -23 -7 -23 -8 10 -10 70 -5 130 -19
130 -29 0 -4 -12 -12 -27 -19 l-28 -12 26 5 c26 5 55 -15 42 -28 -3 -4 10 -7
30 -7 l37 0 0 45 c0 34 -4 45 -16 45 -9 0 -14 5 -12 12 6 17 78 19 78 2 0 -8
-4 -14 -10 -14 -16 0 -12 -97 4 -103 19 -8 26 14 26 79 0 30 5 54 10 54 6 0
10 -13 10 -30 0 -25 4 -30 24 -30 19 0 25 6 28 25 6 50 23 24 26 -40 2 -53 0
-65 -13 -65 -9 0 -15 9 -15 25 0 19 -5 25 -23 25 -20 0 -23 -5 -23 -35 0 -19
3 -35 8 -35 4 0 24 -15 45 -32 20 -18 34 -27 29 -20 -4 6 -2 12 4 12 6 0 14
-10 19 -22 4 -12 10 -17 14 -11 9 14 -3 54 -15 47 -5 -3 -8 32 -6 88 l3 93 30
-3 c40 -5 57 -22 22 -22 -17 0 -27 -5 -27 -15 0 -8 9 -15 20 -15 11 0 20 -5
20 -11 0 -6 -9 -13 -20 -16 -27 -7 -26 -30 1 -29 12 1 24 -5 26 -11 3 -9 -6
-13 -26 -13 -32 0 -36 -7 -25 -46 6 -21 7 -21 55 12 99 66 219 67 316 1 147
-100 165 -308 36 -429 -93 -87 -240 -102 -341 -33 -24 16 -44 22 -59 19 -14
-4 -23 -2 -23 5 0 16 -38 7 -53 -12 -19 -27 -152 -60 -213 -54 -91 9 -192 77
-226 153 -6 13 -19 24 -30 24 -16 0 -18 -9 -18 -85 l0 -85 -45 0 c-29 0 -45 5
-46 13 -1 6 -2 17 -4 22 -1 6 -3 44 -3 86 -2 66 -4 76 -19 76 -45 0 -63 4 -63
13 0 6 6 10 14 10 19 0 26 36 11 56 -10 14 -21 16 -60 11 -59 -8 -64 -13 -39
-31 18 -14 18 -15 2 -21 -17 -7 -150 6 -228 21 -35 6 -60 20 -60 33 0 9 48 7
57 -2 3 -4 26 -7 51 -7 36 0 42 2 33 14 -15 18 33 26 167 26 58 0 102 4 102
10 0 5 -26 7 -65 3 -43 -4 -65 -2 -65 5 0 6 -8 13 -17 15 -10 3 1 5 25 6 26 1
41 5 37 11 -4 6 5 10 21 10 15 0 24 3 20 7 -4 4 -39 8 -79 8 -88 2 -154 21
-160 46 -4 14 -14 19 -40 19 -20 0 -39 -5 -42 -10 -9 -15 -34 -12 -52 5 -18
19 -39 14 -37 -9 1 -9 -6 -16 -17 -16 -15 0 -18 -5 -13 -32 3 -18 7 -39 10
-46 6 -19 -36 5 -43 26 -4 9 -13 21 -20 25 -7 5 -11 12 -8 18 4 5 -2 9 -12 9
-15 0 -16 2 -3 10 8 5 12 11 10 12 -28 21 -64 38 -82 39 -17 1 -18 3 -5 6 24
6 21 17 -13 43 -34 26 -37 37 -13 43 14 4 12 5 -4 6 -19 1 -23 7 -23 37 0 27
5 37 20 41 11 3 20 8 20 12 0 3 -9 12 -20 19 -11 7 -20 20 -20 30 0 10 -9 24
-20 32 -26 18 -26 30 0 30 11 0 20 5 20 10 0 13 -37 13 -42 -1 -2 -7 -11 -7
-28 0 l-25 10 23 7 c25 7 27 15 11 31 -9 9 -2 13 27 18 69 11 70 14 4 10 -43
-3 -58 -1 -45 5 11 5 32 9 48 9 15 1 27 5 27 10 0 4 -24 6 -52 4 -32 -2 -46 0
-35 5 10 4 18 12 18 17 -1 10 2 11 59 15 34 2 34 3 -12 12 -43 9 -46 12 -52
46 -16 90 -9 102 66 102 35 0 54 6 68 20 12 12 15 20 8 20 -9 0 -10 2 -2 8 6
4 14 17 18 29 6 18 2 24 -18 29 -30 7 -31 13 -12 40 14 18 15 18 21 2 12 -30
32 -20 43 20 5 20 10 29 11 19 1 -10 5 -16 11 -12 5 3 6 13 3 21 -4 11 0 15
13 12 11 -2 22 -7 27 -13 4 -6 11 -4 18 5 9 12 10 11 4 -5 -16 -44 -16 -52 -2
-58 21 -8 57 26 57 54 1 13 14 40 31 59 23 28 32 32 38 21 14 -22 -12 -77 -30
-65 -5 3 -6 -3 -2 -12 5 -13 3 -15 -8 -9 -8 4 -11 5 -7 0 4 -4 3 -14 -4 -22
-6 -7 -7 -17 -3 -21 4 -4 10 -1 12 6 3 6 10 9 15 6 6 -4 8 -3 5 3 -3 5 5 27
19 47 15 21 27 45 29 54 1 10 8 16 14 15 6 -2 11 9 11 24 0 24 1 25 13 10 11
-16 12 -15 14 5 6 62 19 134 28 166 7 22 23 13 30 -17z m340 -19 c-5 -18 17
-76 26 -68 2 2 5 -12 6 -32 2 -35 1 -34 -23 23 -37 88 -39 95 -19 95 11 0 15
-6 10 -18z m235 -2 c8 -5 11 -10 5 -10 -5 0 -17 5 -25 10 -8 5 -10 10 -5 10 6
0 17 -5 25 -10z m510 -42 c11 -24 20 -55 20 -70 0 -24 -4 -27 -47 -34 -27 -3
-52 -9 -58 -13 -5 -3 -17 -6 -25 -6 -8 0 -14 -6 -12 -12 2 -11 -16 -18 -39
-15 -4 1 -9 -11 -12 -26 -3 -15 -13 -36 -21 -47 -14 -18 -14 -16 -1 24 8 24
15 62 15 85 0 40 2 43 40 60 22 10 57 35 78 55 20 21 38 39 40 40 2 0 12 -18
22 -41z m-1229 4 c-6 -2 -11 -15 -11 -29 0 -32 -49 -123 -67 -123 -7 0 -13 5
-13 11 0 5 4 8 8 5 13 -8 63 96 64 132 1 27 3 30 16 20 9 -8 10 -14 3 -16z
m411 -57 l28 -33 -26 -17 c-14 -9 -27 -15 -29 -13 -8 8 -16 98 -9 97 5 0 21
-15 36 -34z m-335 -7 c-3 -7 -5 -2 -5 12 0 14 2 19 5 13 2 -7 2 -19 0 -25z
m960 -14 c-3 -3 -12 -4 -19 -1 -8 3 -5 6 6 6 11 1 17 -2 13 -5z m-754 -58 c4
4 7 2 7 -5 0 -7 5 -9 11 -5 8 5 8 1 0 -13 -6 -11 -7 -23 -4 -27 3 -3 1 -6 -6
-6 -8 0 -11 8 -8 20 5 19 4 19 -17 2 -14 -10 -22 -24 -19 -37 4 -20 3 -20 -5
0 -18 38 -25 88 -12 80 7 -4 14 2 17 16 l7 24 11 -28 c6 -15 14 -24 18 -21z
m224 -24 c3 -40 10 -73 22 -104 10 -28 58 -48 113 -48 21 0 26 -5 25 -20 -1
-11 -6 -20 -12 -20 -6 0 -12 -11 -13 -25 -1 -16 3 -25 13 -25 8 0 15 5 15 12
0 6 3 8 8 4 4 -4 7 -11 7 -15 0 -16 46 -62 64 -64 11 0 19 -4 19 -7 0 -3 0
-14 1 -24 1 -18 2 -18 19 -3 24 22 52 7 33 -17 -11 -13 -11 -16 0 -17 8 -1 21
-3 29 -4 8 -1 25 -3 38 -4 32 -2 27 -18 -5 -19 -41 -1 -139 51 -135 71 2 10
-2 17 -8 17 -5 0 -10 -4 -10 -9 0 -12 -85 14 -126 39 -70 44 -129 101 -161
157 -18 32 -33 65 -33 74 0 19 36 54 70 68 14 5 25 10 25 10 0 1 1 -12 2 -27z
m-608 -6 c-11 -11 -59 -17 -59 -8 0 6 12 12 28 14 28 4 39 1 31 -6z m368 -38
c-3 -8 -6 -5 -6 6 -1 11 2 17 5 13 3 -3 4 -12 1 -19z m372 -21 c0 -9 -2 -8 -6
1 -2 6 -10 9 -15 6 -7 -4 -8 -2 -4 5 9 13 26 5 25 -12z m527 -39 c-11 -6 -51
-12 -90 -14 l-71 -3 60 9 c33 6 64 12 70 14 5 2 19 5 30 5 20 0 20 0 1 -11z
m-169 -4 c-3 -3 -12 -4 -19 -1 -8 3 -5 6 6 6 11 1 17 -2 13 -5z m-317 -14 c0
-5 -5 -10 -11 -10 -5 0 -7 5 -4 10 3 6 8 10 11 10 2 0 4 -4 4 -10z m-260 -44
c0 -6 -7 -1 -15 10 -8 10 -15 23 -15 28 0 6 7 1 15 -10 8 -10 15 -23 15 -28z
m-16 -22 c3 -8 2 -12 -4 -9 -6 3 -10 10 -10 16 0 14 7 11 14 -7z m86 -78 c0
-15 -34 20 -54 56 -18 32 -18 32 17 -7 20 -22 36 -44 37 -49z m-777 67 c-7 -2
-19 -2 -25 0 -7 3 -2 5 12 5 14 0 19 -2 13 -5z m7 -23 c0 -5 -12 -10 -27 -9
-25 0 -26 1 -8 9 27 12 35 12 35 0z m2290 -6 c472 -9 460 -21 -45 -43 -251
-11 -396 -27 -407 -45 -5 -6 -8 -7 -8 -1 0 12 25 51 54 83 16 18 28 22 51 18
16 -3 176 -8 355 -12z m-1574 -58 c1 -7 -5 -13 -12 -13 -16 0 -16 0 -8 22 7
17 17 13 20 -9z m150 -83 c-2 -3 -16 8 -30 22 -15 15 -33 24 -41 21 -8 -3 -15
-1 -15 3 0 22 28 16 57 -12 18 -17 31 -32 29 -34z m315 32 c11 6 11 5 2 -5
-15 -16 -43 -6 -43 17 0 15 1 15 13 -2 9 -11 19 -15 28 -10z m165 -89 c8 -3
14 0 14 7 0 8 3 8 9 -2 6 -9 18 -11 35 -7 15 4 26 2 26 -4 0 -14 -120 -13
-192 2 l-58 12 21 22 c18 19 24 21 41 11 15 -9 22 -9 25 -1 2 7 12 10 22 7 10
-3 23 1 27 9 6 9 10 3 12 -19 2 -17 10 -34 18 -37z m-429 29 c23 -24 11 -26
-17 -5 -14 11 -19 20 -12 20 7 0 20 -7 29 -15z m570 -10 c0 -8 -4 -12 -9 -9
-5 3 -6 10 -3 15 9 13 12 11 12 -6z m553 -14 c46 -8 39 -8 -45 -4 -82 4 -98 3
-87 -8 6 -7 12 -17 12 -21 0 -4 -55 -8 -122 -8 -67 0 -119 -2 -117 -4 2 -2 63
-6 134 -9 136 -5 158 -10 189 -39 11 -10 26 -18 33 -18 7 0 13 -4 13 -10 0 -5
19 -10 42 -10 63 0 34 -15 -57 -30 -151 -24 -190 -28 -255 -28 -55 0 -60 1
-35 9 17 5 51 10 78 11 29 1 46 6 44 12 -2 6 -12 11 -23 12 -58 3 -118 34 -64
34 11 0 20 -4 20 -9 0 -5 20 -11 45 -13 25 -2 45 0 45 4 0 11 -47 21 -60 13
-7 -4 -14 2 -17 14 -3 12 -11 21 -18 21 -7 0 -28 2 -46 5 -33 5 -33 5 6 -10
37 -13 37 -14 7 -9 -19 4 -39 1 -48 -7 -12 -9 -20 -9 -42 1 -15 7 -37 12 -49
11 -13 -1 -23 2 -23 6 0 15 83 57 110 56 15 -1 18 0 8 3 -10 3 -18 8 -18 11 0
3 8 12 18 20 13 10 45 12 142 9 69 -3 150 -10 180 -15z m-47 -28 c-7 -2 -19
-2 -25 0 -7 3 -2 5 12 5 14 0 19 -2 13 -5z m-1053 -13 c0 -5 -4 -10 -10 -10
-5 0 -10 5 -10 10 0 6 5 10 10 10 6 0 10 -4 10 -10z m130 -10 c13 -9 13 -10 0
-10 -8 0 -22 5 -30 10 -13 9 -13 10 0 10 8 0 22 -5 30 -10z m-1190 -27 c0 -5
-12 -13 -26 -20 -26 -12 -26 -12 -9 7 18 20 35 26 35 13z m2147 1 c-3 -3 -12
-4 -19 -1 -8 3 -5 6 6 6 11 1 17 -2 13 -5z m-384 -41 c-7 -2 -21 -2 -30 0 -10
3 -4 5 12 5 17 0 24 -2 18 -5z m50 -20 c-7 -2 -19 -2 -25 0 -7 3 -2 5 12 5 14
0 19 -2 13 -5z m-465 -10 c-10 -2 -26 -2 -35 0 -10 3 -2 5 17 5 19 0 27 -2 18
-5z m908 -51 c-12 -11 31 -31 69 -32 33 0 37 -2 22 -11 -17 -10 -44 -9 -182 6
-31 3 -42 2 -30 -3 14 -7 6 -10 -35 -15 -84 -10 -190 -8 -190 3 0 6 11 8 25 4
15 -4 25 -2 25 4 0 7 28 9 78 6 53 -3 71 -1 57 5 -15 7 3 10 65 11 90 2 80 16
-15 21 l-50 2 50 6 c53 6 120 2 111 -7z m-181 -2 c4 -6 -16 -10 -52 -9 -44 1
-52 3 -33 9 36 12 78 12 85 0z m-125 -10 c-20 -13 -73 -13 -65 0 3 6 23 10 43
10 28 0 33 -3 22 -10z m293 -119 c10 -10 -221 -1 -258 10 -19 5 23 6 110 3 77
-4 143 -9 148 -13z m114 3 c-3 -3 -12 -4 -19 -1 -8 3 -5 6 6 6 11 1 17 -2 13
-5z m-122 -43 c11 -5 -34 -9 -107 -10 -81 -1 -128 3 -128 9 0 12 205 13 235 1z
m-160 -31 c-3 -5 -18 -10 -33 -10 -21 0 -24 2 -12 10 20 13 53 13 45 0z m25
-31 c0 -8 22 -10 73 -7 39 3 61 2 47 -2 -25 -7 -25 -7 5 -12 l30 -5 -32 -2
c-40 -1 -54 -21 -16 -22 16 0 22 -3 13 -6 -8 -3 -18 -10 -21 -16 -4 -6 -23 -7
-45 -2 -32 5 -35 8 -21 16 28 16 19 29 -20 28 -34 -1 -35 -2 -13 -9 l25 -8
-28 -1 c-20 -1 -26 -5 -21 -13 5 -9 3 -9 -9 1 -9 7 -14 17 -11 22 3 5 -8 6
-23 4 -15 -3 -41 -1 -58 4 l-30 9 35 1 c19 1 53 4 75 8 l40 7 -30 7 -30 7 33
1 c18 0 32 -4 32 -10z m215 -99 c79 -1 11 -17 -97 -24 -104 -6 -107 -5 -105
15 1 21 5 21 82 15 44 -3 98 -6 120 -6z m25 -46 c-14 -3 -51 -9 -83 -15 -34
-6 -88 -7 -125 -3 -104 11 -48 23 103 22 72 0 119 -2 105 -4z m-136 -40 c25
-4 46 -11 46 -15 0 -12 -62 -10 -145 6 l-70 13 61 1 c34 1 82 -2 108 -5z
m-1581 -101 c-7 -2 -21 -2 -30 0 -10 3 -4 5 12 5 17 0 24 -2 18 -5z"/>
<path d="M1273 2566 c3 -7 1 -18 -5 -24 -8 -8 -4 -9 13 -5 29 8 42 25 26 35
-20 13 -40 9 -34 -6z"/>
<path d="M980 2350 c-12 -23 -12 -24 3 -11 13 10 17 10 17 1 0 -10 3 -10 15 0
8 7 15 17 15 22 0 6 -6 6 -14 -1 -11 -9 -15 -9 -18 1 -3 8 -10 4 -18 -12z"/>
<path d="M930 2290 c-6 -12 -9 -24 -7 -27 3 -2 11 5 17 17 6 12 9 24 7 27 -3
2 -11 -5 -17 -17z"/>
<path d="M406 1617 c3 -10 9 -15 12 -12 3 3 0 11 -7 18 -10 9 -11 8 -5 -6z"/>
<path d="M308 1273 c7 -3 16 -2 19 1 4 3 -2 6 -13 5 -11 0 -14 -3 -6 -6z"/>
<path d="M292 1230 c-18 -4 -36 -11 -39 -14 -8 -7 53 4 82 15 25 10 1 9 -43
-1z"/>
<path d="M306 1201 c-12 -5 -15 -10 -9 -14 6 -4 26 0 44 8 31 13 32 14 9 14
-14 0 -34 -4 -44 -8z"/>
<path d="M953 855 c-8 -9 -9 -16 -3 -20 6 -3 13 1 16 10 9 21 2 26 -13 10z"/>
<path d="M1803 814 c-51 -19 -65 -44 -24 -44 15 0 43 -8 62 -17 l34 -18 -85
-6 -85 -5 88 -2 c84 -2 87 -3 77 -22 -9 -16 -8 -20 5 -20 8 0 15 -4 15 -10 0
-6 -33 -11 -77 -11 l-78 -1 80 -13 c44 -8 86 -14 93 -14 25 -2 11 -21 -15 -21
-20 0 -24 -3 -14 -9 8 -5 11 -16 8 -25 -4 -10 -1 -19 8 -22 25 -10 6 -24 -33
-25 -28 -1 -31 -3 -12 -7 23 -4 23 -5 5 -12 -24 -8 -57 -1 -49 11 8 13 -10 11
-24 -3 -20 -20 -14 -28 19 -28 19 0 28 -4 23 -11 -3 -6 0 -15 7 -20 46 -29
162 16 200 77 16 27 22 53 23 98 1 57 -1 61 -22 62 -13 1 -29 7 -35 14 -9 9
-9 11 3 10 37 -5 40 0 18 35 -25 38 -98 76 -145 74 -15 0 -47 -7 -70 -15z
m142 -294 c-3 -5 -12 -10 -18 -10 -7 0 -6 4 3 10 19 12 23 12 15 0z"/>
<path d="M913 793 c9 -2 23 -2 30 0 6 3 -1 5 -18 5 -16 0 -22 -2 -12 -5z"/>
<path d="M1547 733 c17 -27 17 -28 -2 -13 -11 9 -16 10 -11 3 5 -9 1 -13 -11
-14 -10 0 -4 -5 14 -12 37 -14 43 -28 16 -38 -14 -6 -12 -8 10 -8 25 -1 27 1
21 27 -7 26 -40 82 -50 82 -2 0 3 -12 13 -27z"/>
<path d="M1690 690 c0 -5 5 -10 10 -10 6 0 10 5 10 10 0 6 -4 10 -10 10 -5 0
-10 -4 -10 -10z"/>
<path d="M1603 665 c0 -8 4 -12 9 -9 5 3 6 10 3 15 -9 13 -12 11 -12 -6z"/>
<path d="M1713 533 c9 -14 46 -23 52 -14 2 4 -1 8 -8 8 -7 0 -21 4 -31 9 -13
5 -17 4 -13 -3z"/>
<path d="M1268 513 c22 -41 158 -84 176 -55 2 4 -12 6 -32 4 -21 -2 -53 4 -72
13 -19 9 -25 14 -12 11 12 -2 22 0 22 5 0 5 -12 9 -27 9 -14 0 -35 8 -46 18
-19 16 -20 16 -9 -5z"/>
<path d="M1640 520 c18 -12 30 -13 30 -2 0 4 -10 9 -22 9 -18 2 -20 0 -8 -7z"/>
<path d="M1614 502 c3 -5 1 -12 -4 -14 -17 -5 2 -43 23 -44 9 -1 17 3 18 10 0
6 5 2 10 -9 8 -18 8 -18 6 5 -1 17 -9 26 -25 28 -12 2 -20 7 -17 12 3 5 0 12
-6 16 -7 4 -9 3 -5 -4z"/>
<path d="M1440 496 c0 -9 37 -12 55 -5 15 6 11 8 -17 8 -21 1 -38 -1 -38 -3z"/>
<path d="M2108 1283 c7 -3 16 -2 19 1 4 3 -2 6 -13 5 -11 0 -14 -3 -6 -6z"/>
<path d="M2208 1263 c7 -3 16 -2 19 1 4 3 -2 6 -13 5 -11 0 -14 -3 -6 -6z"/>
<path d="M2225 1220 c3 -5 18 -10 32 -10 32 0 28 5 -10 14 -19 4 -26 3 -22 -4z"/>
<path d="M2233 1133 c9 -2 23 -2 30 0 6 3 -1 5 -18 5 -16 0 -22 -2 -12 -5z"/>
<path d="M1645 3040 c3 -5 8 -10 11 -10 2 0 4 5 4 10 0 6 -5 10 -11 10 -5 0
-7 -4 -4 -10z"/>
<path d="M1194 3025 c-4 -8 -9 -13 -14 -10 -4 2 -14 -14 -23 -35 -12 -31 -24
-44 -54 -56 -91 -36 -109 -46 -118 -67 -6 -12 -14 -22 -20 -22 -24 -1 -104
-48 -134 -79 l-34 -35 17 -41 c9 -23 14 -46 10 -51 -3 -5 0 -16 6 -24 7 -8 12
-30 12 -50 0 -19 1 -35 3 -35 2 0 12 16 24 35 18 32 19 39 7 58 -7 12 -16 39
-19 59 -5 35 -4 38 29 48 20 7 38 10 41 7 14 -14 -48 -280 -68 -293 -12 -7
-12 -24 0 -24 5 0 23 12 40 26 24 20 30 31 25 49 -3 12 1 37 10 53 9 17 16 44
16 60 0 46 75 191 105 202 50 19 83 12 118 -24 l32 -34 40 14 c22 9 54 20 72
25 18 5 35 14 38 19 8 13 -44 6 -72 -8 -39 -21 -71 -15 -88 18 -22 42 -19 50
20 50 40 0 51 15 40 57 -4 19 -9 23 -14 14 -7 -10 -13 -11 -31 -1 -15 8 -20 8
-16 1 4 -6 2 -11 -3 -11 -20 0 -11 48 14 78 14 17 25 33 25 36 0 13 -31 5 -36
-9z"/>
<path d="M1886 2894 c-5 -14 -4 -15 9 -4 17 14 19 20 6 20 -5 0 -12 -7 -15
-16z"/>
<path d="M2520 2436 c-16 -16 -12 -25 10 -23 10 1 17 3 15 6 -3 2 0 9 5 16 12
15 -15 16 -30 1z"/>
<path d="M255 2420 c3 -5 8 -10 11 -10 2 0 4 5 4 10 0 6 -5 10 -11 10 -5 0 -7
-4 -4 -10z"/>
<path d="M2800 2379 c-107 -32 -192 -66 -244 -98 -64 -39 -61 -48 12 -33 26 6
65 11 86 11 21 1 48 7 60 13 12 6 5 -5 -16 -27 -21 -21 -38 -41 -38 -46 0 -12
17 -11 25 1 11 17 38 12 31 -6 -5 -14 2 -15 61 -9 38 3 102 8 143 10 41 2 103
6 138 10 l62 7 0 68 c0 78 4 75 -120 91 -132 17 -164 18 -200 8z m144 -113
c-3 -7 -21 -20 -40 -30 -35 -16 -36 -16 -41 4 -3 11 -14 20 -24 20 -11 0 -19
4 -19 10 0 5 13 7 30 4 17 -4 30 -2 30 3 0 5 15 7 34 5 22 -3 33 -8 30 -16z"/>
<path d="M510 2244 c0 -8 32 -33 43 -34 5 0 5 5 1 12 -5 8 -2 9 10 5 10 -4 15
-3 11 4 -4 5 -15 7 -26 4 -11 -4 -19 -2 -19 4 0 6 -4 11 -10 11 -5 0 -10 -3
-10 -6z"/>
<path d="M2460 2210 c-9 -6 -10 -10 -3 -10 6 0 15 5 18 10 8 12 4 12 -15 0z"/>
<path d="M2221 2183 c0 -4 4 -17 9 -28 8 -19 9 -19 9 2 1 12 -3 25 -9 28 -5 3
-10 3 -9 -2z"/>
</g>
</svg>
